<svg xmlns="http://www.w3.org/2000/svg" xmlns:xlink="http://www.w3.org/1999/xlink" viewBox="0 0 64 64" version="1.1" width="100" height="100" style="fill: rgb(0, 0, 0);">
<g id="surface1">
<path style=" fill:#C5E4FA;" d="M 49.460938 38.269531 L 58.929688 54.660156 L 49.5 54.328125 L 45.070313 62.660156 L 35.53125 46.140625 "/>
<path style=" fill:#C5E4FA;" d="M 14.539063 38.269531 L 5.070313 54.660156 L 14.5 54.328125 L 18.929688 62.660156 L 28.46875 46.140625 "/>
<path style=" fill:#A2CEEA;" d="M 49.460938 38.269531 L 35.53125 46.140625 L 37.738281 50 L 38.589844 49.308594 C 39.03125 48.953125 39.601563 48.800781 40.160156 48.890625 L 44.398438 49.558594 C 45.332031 49.707031 46.242188 49.183594 46.578125 48.300781 L 48.121094 44.300781 C 48.324219 43.769531 48.742188 43.351563 49.269531 43.148438 L 51.71875 42.210938 Z "/>
<path style=" fill:#A2CEEA;" d="M 12.28125 42.179688 L 14.730469 43.121094 C 15.257813 43.324219 15.675781 43.742188 15.878906 44.269531 L 17.421875 48.269531 C 17.757813 49.152344 18.667969 49.675781 19.601563 49.53125 L 23.839844 48.859375 C 24.398438 48.769531 24.96875 48.925781 25.410156 49.28125 L 26.261719 49.96875 L 28.46875 46.140625 L 14.539063 38.269531 Z "/>
<path style=" fill:#F6D397;" d="M 33.261719 2 L 36.589844 4.699219 C 37.03125 5.054688 37.601563 5.207031 38.160156 5.121094 L 42.398438 4.449219 C 43.332031 4.300781 44.242188 4.828125 44.578125 5.710938 L 46.121094 9.710938 C 46.324219 10.238281 46.742188 10.65625 47.269531 10.859375 L 51.269531 12.398438 C 52.152344 12.738281 52.675781 13.648438 52.53125 14.578125 L 51.859375 18.820313 C 51.769531 19.378906 51.925781 19.949219 52.28125 20.390625 L 55 23.738281 C 55.597656 24.472656 55.597656 25.527344 55 26.261719 L 52.300781 29.589844 C 51.945313 30.03125 51.792969 30.601563 51.878906 31.160156 L 52.550781 35.398438 C 52.699219 36.332031 52.171875 37.242188 51.289063 37.578125 L 47.289063 39.121094 C 46.761719 39.324219 46.34375 39.742188 46.140625 40.269531 L 44.601563 44.269531 C 44.261719 45.152344 43.351563 45.675781 42.421875 45.53125 L 38.179688 44.859375 C 37.621094 44.769531 37.050781 44.925781 36.609375 45.28125 L 33.261719 48 C 32.527344 48.597656 31.472656 48.597656 30.738281 48 L 27.410156 45.300781 C 26.96875 44.945313 26.398438 44.792969 25.839844 44.878906 L 21.601563 45.550781 C 20.667969 45.699219 19.757813 45.171875 19.421875 44.289063 L 17.878906 40.289063 C 17.675781 39.761719 17.257813 39.34375 16.730469 39.140625 L 12.730469 37.601563 C 11.847656 37.261719 11.324219 36.351563 11.46875 35.421875 L 12.140625 31.179688 C 12.230469 30.621094 12.074219 30.050781 11.71875 29.609375 L 9 26.261719 C 8.402344 25.527344 8.402344 24.472656 9 23.738281 L 11.699219 20.410156 C 12.054688 19.96875 12.207031 19.398438 12.121094 18.839844 L 11.449219 14.601563 C 11.300781 13.667969 11.828125 12.757813 12.710938 12.421875 L 16.710938 10.878906 C 17.238281 10.675781 17.65625 10.257813 17.859375 9.730469 L 19.398438 5.730469 C 19.738281 4.839844 20.660156 4.3125 21.601563 4.46875 L 25.839844 5.140625 C 26.398438 5.230469 26.96875 5.074219 27.410156 4.71875 L 30.738281 2 C 31.472656 1.402344 32.527344 1.402344 33.261719 2 Z "/>
<path style=" fill:#F9E3AE;" d="M 47 25 C 47 33.285156 40.285156 40 32 40 C 30.320313 40.003906 28.65625 39.722656 27.070313 39.171875 C 24.410156 38.238281 22.070313 36.578125 20.308594 34.378906 C 19.605469 33.511719 19.003906 32.5625 18.511719 31.558594 C 17.527344 29.511719 17.011719 27.273438 17 25 C 17 16.714844 23.714844 10 32 10 C 34.273438 10.011719 36.519531 10.527344 38.570313 11.511719 C 39.574219 12.003906 40.519531 12.605469 41.390625 13.308594 C 43.589844 15.070313 45.25 17.410156 46.179688 20.070313 C 46.730469 21.65625 47.007813 23.320313 47 25 Z "/>
<path style=" fill:#FFEFCA;" d="M 47 25 C 47 33.285156 40.285156 40 32 40 C 30.320313 40.003906 28.65625 39.722656 27.070313 39.171875 L 46.171875 20.070313 C 46.722656 21.65625 47.003906 23.320313 47 25 Z "/>
<path style=" fill:#FFEFCA;" d="M 44.660156 17 L 24 37.660156 C 22.605469 36.78125 21.371094 35.671875 20.351563 34.378906 L 41.378906 13.308594 C 42.675781 14.34375 43.785156 15.59375 44.660156 17 Z "/>
<path style=" fill:#FFEFCA;" d="M 38.570313 11.511719 L 18.511719 31.570313 C 17.832031 30.175781 17.375 28.683594 17.160156 27.148438 L 34.160156 10.148438 C 35.691406 10.371094 37.179688 10.828125 38.570313 11.511719 Z "/>
<path style=" fill:#FFF8F8;" d="M 40.660156 20.761719 L 39.421875 23.019531 L 37.160156 24.261719 L 39.421875 25.5 L 40.660156 27.769531 L 41.898438 25.5 L 44.160156 24.261719 L 41.898438 23.019531 Z "/>
<path style=" fill:#FFF8F8;" d="M 25.738281 15.769531 L 24.890625 17.328125 L 23.320313 18.179688 L 24.890625 19.039063 L 25.738281 20.601563 L 26.601563 19.039063 L 28.160156 18.179688 L 26.601563 17.328125 Z "/>
<path style=" fill:#FFF8F8;" d="M 24.808594 28.46875 L 24.230469 29.539063 L 23.160156 30.121094 L 24.230469 30.699219 L 24.808594 31.769531 L 25.390625 30.699219 L 26.460938 30.121094 L 25.390625 29.539063 Z "/>
<path style=" fill:#8D6C9F;" d="M 59.789063 54.160156 L 50.921875 38.789063 L 51.628906 38.519531 C 52.953125 38.011719 53.742188 36.648438 53.519531 35.25 L 52.851563 31 C 52.804688 30.71875 52.878906 30.429688 53.058594 30.210938 L 55.761719 26.878906 C 56.652344 25.777344 56.652344 24.203125 55.761719 23.101563 L 53.058594 19.769531 C 52.878906 19.546875 52.804688 19.261719 52.851563 18.980469 L 53.519531 14.738281 C 53.742188 13.339844 52.953125 11.976563 51.628906 11.46875 L 47.628906 9.929688 C 47.363281 9.828125 47.152344 9.617188 47.050781 9.351563 L 45.511719 5.351563 C 45.003906 4.027344 43.640625 3.238281 42.238281 3.460938 L 38 4.148438 C 37.71875 4.195313 37.429688 4.121094 37.210938 3.941406 L 33.878906 1.238281 C 32.777344 0.347656 31.203125 0.347656 30.101563 1.238281 L 26.769531 3.941406 C 26.546875 4.121094 26.261719 4.195313 25.980469 4.148438 L 21.738281 3.480469 C 20.339844 3.257813 18.976563 4.046875 18.46875 5.371094 L 16.929688 9.371094 C 16.828125 9.636719 16.617188 9.847656 16.351563 9.949219 L 12.351563 11.488281 C 11.027344 11.996094 10.238281 13.359375 10.460938 14.761719 L 11.148438 19 C 11.195313 19.28125 11.121094 19.570313 10.941406 19.789063 L 8.238281 23.121094 C 7.347656 24.222656 7.347656 25.796875 8.238281 26.898438 L 10.941406 30.230469 C 11.121094 30.453125 11.195313 30.738281 11.148438 31.019531 L 10.480469 35.261719 C 10.257813 36.660156 11.046875 38.023438 12.371094 38.53125 L 13.078125 38.800781 L 4.210938 54.160156 C 4.027344 54.476563 4.03125 54.863281 4.21875 55.175781 C 4.40625 55.488281 4.746094 55.671875 5.109375 55.660156 L 13.910156 55.351563 L 18 63.128906 C 18.171875 63.453125 18.503906 63.65625 18.871094 63.660156 C 19.230469 63.660156 19.5625 63.46875 19.738281 63.160156 L 28.738281 47.648438 L 30.101563 48.75 C 31.203125 49.644531 32.777344 49.644531 33.878906 48.75 L 35.238281 47.648438 L 44.238281 63.160156 C 44.417969 63.46875 44.75 63.660156 45.109375 63.660156 C 45.476563 63.65625 45.808594 63.453125 45.980469 63.128906 L 50.121094 55.351563 L 58.921875 55.660156 C 59.28125 55.671875 59.621094 55.488281 59.808594 55.179688 C 59.992188 54.863281 59.984375 54.472656 59.789063 54.160156 Z M 19 60.601563 L 15.421875 53.859375 C 15.238281 53.523438 14.882813 53.316406 14.5 53.328125 L 6.871094 53.601563 L 15 39.511719 L 16.398438 40.050781 C 16.667969 40.152344 16.878906 40.363281 16.980469 40.628906 L 18.519531 44.628906 C 19.027344 45.953125 20.390625 46.742188 21.789063 46.519531 L 26 45.851563 C 26.28125 45.804688 26.570313 45.878906 26.789063 46.058594 L 27.191406 46.378906 Z M 32.628906 47.199219 C 32.261719 47.496094 31.738281 47.496094 31.371094 47.199219 L 28 44.5 C 27.339844 43.964844 26.480469 43.734375 25.640625 43.871094 L 21.398438 44.539063 C 20.933594 44.613281 20.480469 44.351563 20.308594 43.910156 L 18.769531 39.910156 C 18.464844 39.113281 17.835938 38.484375 17.039063 38.179688 L 13.039063 36.640625 C 12.597656 36.472656 12.335938 36.015625 12.410156 35.550781 L 13.078125 31.308594 C 13.214844 30.492188 13.003906 29.65625 12.5 29 L 9.800781 25.628906 C 9.503906 25.261719 9.503906 24.738281 9.800781 24.371094 L 12.5 21 C 13.035156 20.339844 13.265625 19.480469 13.128906 18.640625 L 12.460938 14.398438 C 12.386719 13.933594 12.648438 13.480469 13.089844 13.308594 L 17.089844 11.769531 C 17.886719 11.464844 18.515625 10.835938 18.820313 10.039063 L 20.359375 6.039063 C 20.527344 5.597656 20.984375 5.335938 21.449219 5.410156 L 25.691406 6.078125 C 26.507813 6.214844 27.34375 6.003906 28 5.5 L 31.328125 2.800781 C 31.695313 2.503906 32.222656 2.503906 32.589844 2.800781 L 36 5.5 C 36.660156 6.035156 37.519531 6.265625 38.359375 6.128906 L 42.601563 5.460938 C 43.066406 5.386719 43.519531 5.648438 43.691406 6.089844 L 45.230469 10.089844 C 45.535156 10.886719 46.164063 11.515625 46.960938 11.820313 L 50.960938 13.359375 C 51.402344 13.527344 51.664063 13.984375 51.589844 14.449219 L 50.921875 18.691406 C 50.785156 19.507813 50.996094 20.34375 51.5 21 L 54.199219 24.328125 C 54.496094 24.695313 54.496094 25.222656 54.199219 25.589844 L 51.5 29 C 50.964844 29.660156 50.734375 30.519531 50.871094 31.359375 L 51.539063 35.601563 C 51.613281 36.066406 51.351563 36.519531 50.910156 36.691406 L 46.910156 38.230469 C 46.113281 38.535156 45.484375 39.164063 45.179688 39.960938 L 43.640625 43.960938 C 43.472656 44.402344 43.015625 44.664063 42.550781 44.589844 L 38.308594 43.921875 C 37.492188 43.785156 36.65625 43.996094 36 44.5 Z M 49.53125 53.328125 C 49.148438 53.316406 48.789063 53.523438 48.609375 53.859375 L 45 60.601563 L 36.820313 46.378906 L 37.21875 46.058594 C 37.441406 45.878906 37.730469 45.804688 38.011719 45.851563 L 42.25 46.519531 C 43.648438 46.742188 45.011719 45.953125 45.519531 44.628906 L 47.058594 40.628906 C 47.160156 40.363281 47.371094 40.152344 47.640625 40.050781 L 49.039063 39.511719 L 57.160156 53.601563 Z "/>
<path style=" fill:#8D6C9F;" d="M 40.191406 34.78125 C 39.792969 34.441406 39.203125 34.464844 38.832031 34.832031 C 38.464844 35.203125 38.441406 35.792969 38.78125 36.191406 L 40.191406 37.601563 C 40.585938 37.941406 41.179688 37.917969 41.546875 37.546875 C 41.917969 37.179688 41.941406 36.585938 41.601563 36.191406 Z "/>
<path style=" fill:#8D6C9F;" d="M 21.808594 34.78125 L 20.398438 36.191406 C 20.113281 36.433594 19.992188 36.816406 20.078125 37.183594 C 20.167969 37.546875 20.453125 37.832031 20.816406 37.921875 C 21.183594 38.007813 21.566406 37.886719 21.808594 37.601563 L 23.21875 36.191406 C 23.558594 35.792969 23.535156 35.203125 23.167969 34.832031 C 22.796875 34.464844 22.207031 34.441406 21.808594 34.78125 Z "/>
<path style=" fill:#8D6C9F;" d="M 31 38 C 30.449219 38 30 38.449219 30 39 L 30 41 C 30 41.550781 30.449219 42 31 42 C 31.550781 42 32 41.550781 32 41 L 32 39 C 32 38.449219 31.550781 38 31 38 Z "/>
<path style=" fill:#8D6C9F;" d="M 26.699219 37.128906 C 26.191406 36.914063 25.605469 37.152344 25.390625 37.660156 L 24.609375 39.5 C 24.453125 39.832031 24.492188 40.222656 24.707031 40.515625 C 24.925781 40.8125 25.285156 40.964844 25.648438 40.917969 C 26.011719 40.867188 26.320313 40.621094 26.449219 40.28125 L 27.230469 38.441406 C 27.445313 37.933594 27.207031 37.347656 26.699219 37.128906 Z "/>
<path style=" fill:#8D6C9F;" d="M 20.800781 31.121094 C 20.59375 30.609375 20.011719 30.363281 19.5 30.570313 L 17.648438 31.320313 C 17.296875 31.4375 17.039063 31.742188 16.980469 32.109375 C 16.921875 32.476563 17.070313 32.847656 17.371094 33.070313 C 17.667969 33.292969 18.066406 33.332031 18.398438 33.171875 L 20.25 32.421875 C 20.761719 32.210938 21.007813 31.628906 20.800781 31.121094 Z "/>
<path style=" fill:#8D6C9F;" d="M 36.621094 40.910156 C 37.128906 40.703125 37.375 40.121094 37.171875 39.609375 L 36.421875 37.761719 C 36.191406 37.285156 35.632813 37.066406 35.140625 37.265625 C 34.652344 37.464844 34.402344 38.007813 34.570313 38.511719 L 35.320313 40.359375 C 35.527344 40.871094 36.109375 41.117188 36.621094 40.910156 Z "/>
<path style=" fill:#8D6C9F;" d="M 33.160156 11 C 33.710938 11.046875 34.199219 10.636719 34.246094 10.085938 C 34.292969 9.53125 33.882813 9.046875 33.328125 9 C 32.890625 9 32.449219 9 32 9 C 23.164063 9 16 16.164063 16 25 C 16 25.332031 16 25.667969 16 26 C 16.03125 26.527344 16.46875 26.941406 17 26.941406 L 17.058594 26.941406 C 17.324219 26.925781 17.574219 26.804688 17.75 26.605469 C 17.925781 26.40625 18.015625 26.144531 18 25.878906 C 18 25.585938 18 25.292969 18 25 C 18 17.269531 24.269531 11 32 11 C 32.394531 11 32.78125 11 33.160156 11 Z "/>
<path style=" fill:#8D6C9F;" d="M 46 25 C 46 27.273438 45.449219 29.507813 44.390625 31.519531 C 44.148438 32.007813 44.339844 32.597656 44.820313 32.847656 C 45.300781 33.101563 45.894531 32.925781 46.160156 32.449219 C 49.238281 26.582031 48.378906 19.425781 44 14.449219 C 43.769531 14.164063 43.398438 14.027344 43.039063 14.09375 C 42.675781 14.160156 42.382813 14.421875 42.269531 14.769531 C 42.15625 15.121094 42.246094 15.503906 42.5 15.769531 C 44.75 18.320313 45.992188 21.601563 46 25 Z "/>
<path style=" fill:#8D6C9F;" d="M 37.679688 12.199219 C 38.53125 12.578125 39.339844 13.039063 40.101563 13.578125 C 40.550781 13.898438 41.175781 13.796875 41.496094 13.34375 C 41.816406 12.894531 41.710938 12.269531 41.261719 11.949219 C 40.394531 11.332031 39.46875 10.804688 38.5 10.371094 C 37.996094 10.144531 37.402344 10.375 37.179688 10.878906 C 36.957031 11.386719 37.183594 11.976563 37.691406 12.199219 Z "/>
<path style=" fill:#8D6C9F;" d="M 37 31 C 37 30.449219 36.550781 30 36 30 L 34 30 L 34 18 C 34 17.632813 33.796875 17.296875 33.472656 17.125 C 33.148438 16.949219 32.757813 16.96875 32.449219 17.171875 L 29.449219 19.171875 C 29.027344 19.488281 28.925781 20.082031 29.21875 20.523438 C 29.515625 20.964844 30.101563 21.101563 30.558594 20.828125 L 32.011719 19.828125 L 32.011719 30 L 30 30 C 29.449219 30 29 30.449219 29 31 C 29 31.550781 29.449219 32 30 32 L 36 32 C 36.550781 32 37 31.550781 37 31 Z "/>
</g>
</svg>