<svg xmlns="http://www.w3.org/2000/svg" xmlns:xlink="http://www.w3.org/1999/xlink" viewBox="0 0 64 64" version="1.1" width="100" height="100" style="fill: rgb(0, 0, 0);">
<g id="surface1">
<path style=" fill:#C2CDE7;" d="M 3 41 L 61 41 C 62.105469 41 63 41.894531 63 43 L 63 49 C 63 50.105469 62.105469 51 61 51 L 3 51 C 1.894531 51 1 50.105469 1 49 L 1 43 C 1 41.894531 1.894531 41 3 41 Z "/>
<path style=" fill:#D5E0F3;" d="M 4 46 C 4 45.449219 4.449219 45 5 45 L 59 45 C 59.550781 45 60 45.449219 60 46 C 60 46.550781 59.550781 47 59 47 L 5 47 C 4.449219 47 4 46.550781 4 46 Z "/>
<path style=" fill:#ED7899;" d="M 61 41 L 41 41 L 41 21 L 51 21 L 61 35.078125 Z "/>
<path style=" fill:#BBDEF9;" d="M 54 33 L 45 33 L 45 25 L 51 25 Z "/>
<path style=" fill:#85CBF8;" d="M 3 11 L 41 11 L 41 41 L 3 41 Z "/>
<path style=" fill:#6FC6F0;" d="M 41 11 L 3 11 L 3 13 C 3 14.65625 4.34375 16 6 16 L 38 16 C 39.65625 16 41 14.65625 41 13 Z "/>
<path style=" fill:#F9E3AE;" d="M 3 7 L 41 7 C 42.105469 7 43 7.894531 43 9 C 43 10.105469 42.105469 11 41 11 L 3 11 C 1.894531 11 1 10.105469 1 9 C 1 7.894531 1.894531 7 3 7 Z "/>
<path style=" fill:#ACB7D0;" d="M 21 51 C 21 54.3125 18.3125 57 15 57 C 11.6875 57 9 54.3125 9 51 C 9 47.6875 11.6875 45 15 45 C 18.3125 45 21 47.6875 21 51 Z "/>
<path style=" fill:#ACB7D0;" d="M 57 51 C 57 54.3125 54.3125 57 51 57 C 47.6875 57 45 54.3125 45 51 C 45 47.6875 47.6875 45 51 45 C 54.3125 45 57 47.6875 57 51 Z "/>
<path style=" fill:#F9E3AE;" d="M 33 26 C 33 32.074219 28.074219 37 22 37 C 15.925781 37 11 32.074219 11 26 C 11 19.925781 15.925781 15 22 15 C 28.074219 15 33 19.925781 33 26 Z "/>
<path style=" fill:#8D6C9F;" d="M 22 38 C 28.628906 38 34 32.628906 34 26 C 34 19.371094 28.628906 14 22 14 C 15.371094 14 10 19.371094 10 26 C 10 32.628906 15.371094 38 22 38 Z M 22 16 C 27.523438 16 32 20.476563 32 26 C 32 31.523438 27.523438 36 22 36 C 16.476563 36 12 31.523438 12 26 C 12 20.476563 16.476563 16 22 16 Z "/>
<path style=" fill:#8D6C9F;" d="M 17 32 C 17.265625 32 17.519531 31.898438 17.710938 31.710938 L 22.710938 26.710938 C 22.898438 26.519531 23 26.265625 23 26 L 23 19 C 23 18.449219 22.550781 18 22 18 C 21.449219 18 21 18.449219 21 19 L 21 25.589844 L 16.289063 30.300781 C 16.007813 30.585938 15.925781 31.015625 16.082031 31.386719 C 16.234375 31.757813 16.597656 32 17 32 Z "/>
<path style=" fill:#8D6C9F;" d="M 7 44 C 6.449219 44 6 44.449219 6 45 L 6 47 C 6 47.550781 6.449219 48 7 48 C 7.550781 48 8 47.550781 8 47 L 8 45 C 8 44.449219 7.550781 44 7 44 Z "/>
<path style=" fill:#8D6C9F;" d="M 23 44 C 22.449219 44 22 44.449219 22 45 L 22 47 C 22 47.550781 22.449219 48 23 48 C 23.550781 48 24 47.550781 24 47 L 24 45 C 24 44.449219 23.550781 44 23 44 Z "/>
<path style=" fill:#8D6C9F;" d="M 28 44 C 27.449219 44 27 44.449219 27 45 L 27 47 C 27 47.550781 27.449219 48 28 48 C 28.550781 48 29 47.550781 29 47 L 29 45 C 29 44.449219 28.550781 44 28 44 Z "/>
<path style=" fill:#8D6C9F;" d="M 33 44 C 32.449219 44 32 44.449219 32 45 L 32 47 C 32 47.550781 32.449219 48 33 48 C 33.550781 48 34 47.550781 34 47 L 34 45 C 34 44.449219 33.550781 44 33 44 Z "/>
<path style=" fill:#8D6C9F;" d="M 38 44 C 37.449219 44 37 44.449219 37 45 L 37 47 C 37 47.550781 37.449219 48 38 48 C 38.550781 48 39 47.550781 39 47 L 39 45 C 39 44.449219 38.550781 44 38 44 Z "/>
<path style=" fill:#8D6C9F;" d="M 43 44 C 42.449219 44 42 44.449219 42 45 L 42 47 C 42 47.550781 42.449219 48 43 48 C 43.550781 48 44 47.550781 44 47 L 44 45 C 44 44.449219 43.550781 44 43 44 Z "/>
<path style=" fill:#8D6C9F;" d="M 59 44 C 58.449219 44 58 44.449219 58 45 L 58 47 C 58 47.550781 58.449219 48 59 48 C 59.550781 48 60 47.550781 60 47 L 60 45 C 60 44.449219 59.550781 44 59 44 Z "/>
<path style=" fill:#8D6C9F;" d="M 45 38 L 47 38 C 47.550781 38 48 37.550781 48 37 C 48 36.449219 47.550781 36 47 36 L 45 36 C 44.449219 36 44 36.449219 44 37 C 44 37.550781 44.449219 38 45 38 Z "/>
<path style=" fill:#8D6C9F;" d="M 62 40.171875 C 62.003906 40.113281 62.003906 40.054688 62 40 L 62 36.171875 C 62 35.214844 61.726563 34.277344 61.210938 33.46875 L 54 22.300781 C 53.085938 20.875 51.511719 20.007813 49.820313 20 L 48 20 L 48 18 C 48 17.449219 47.550781 17 47 17 C 46.449219 17 46 17.449219 46 18 L 46 20 L 42 20 L 42 11.820313 C 43.363281 11.324219 44.179688 9.921875 43.933594 8.492188 C 43.6875 7.0625 42.453125 6.011719 41 6 L 3 6 C 1.546875 6.011719 0.3125 7.0625 0.0664063 8.492188 C -0.179688 9.921875 0.636719 11.324219 2 11.820313 L 2 40.179688 C 0.804688 40.601563 0.00390625 41.730469 0 43 L 0 49 C 0 50.65625 1.34375 52 3 52 L 8.078125 52 C 8.601563 55.417969 11.542969 57.945313 15 57.945313 C 18.457031 57.945313 21.398438 55.417969 21.921875 52 L 44.078125 52 C 44.601563 55.417969 47.542969 57.945313 51 57.945313 C 54.457031 57.945313 57.398438 55.417969 57.921875 52 L 61 52 C 62.65625 52 64 50.65625 64 49 L 64 43 C 64 41.726563 63.199219 40.59375 62 40.171875 Z M 49.820313 22 C 50.839844 22 51.789063 22.523438 52.339844 23.378906 L 59.519531 34.550781 C 59.832031 35.03125 60 35.59375 60 36.171875 L 60 40 L 42 40 L 42 22 Z M 40 12 L 40 40 L 4 40 L 4 12 Z M 3 8 L 41 8 C 41.550781 8 42 8.449219 42 9 C 42 9.550781 41.550781 10 41 10 L 3 10 C 2.449219 10 2 9.550781 2 9 C 2 8.449219 2.449219 8 3 8 Z M 15 56 C 12.238281 56 10 53.761719 10 51 C 10 48.238281 12.238281 46 15 46 C 17.761719 46 20 48.238281 20 51 C 20 53.761719 17.761719 56 15 56 Z M 51 56 C 48.238281 56 46 53.761719 46 51 C 46 48.238281 48.238281 46 51 46 C 53.761719 46 56 48.238281 56 51 C 56 53.761719 53.761719 56 51 56 Z M 62 49 C 62 49.550781 61.550781 50 61 50 L 57.921875 50 C 57.398438 46.582031 54.457031 44.054688 51 44.054688 C 47.542969 44.054688 44.601563 46.582031 44.078125 50 L 21.921875 50 C 21.398438 46.582031 18.457031 44.054688 15 44.054688 C 11.542969 44.054688 8.601563 46.582031 8.078125 50 L 3 50 C 2.449219 50 2 49.550781 2 49 L 2 48 C 2.550781 48 3 47.550781 3 47 L 3 45 C 3 44.449219 2.550781 44 2 44 L 2 43 C 2 42.449219 2.449219 42 3 42 L 61 42 C 61.550781 42 62 42.449219 62 43 Z "/>
<path style=" fill:#8D6C9F;" d="M 53 51 C 53 52.105469 52.105469 53 51 53 C 49.894531 53 49 52.105469 49 51 C 49 49.894531 49.894531 49 51 49 C 52.105469 49 53 49.894531 53 51 Z "/>
<path style=" fill:#8D6C9F;" d="M 17 51 C 17 52.105469 16.105469 53 15 53 C 13.894531 53 13 52.105469 13 51 C 13 49.894531 13.894531 49 15 49 C 16.105469 49 17 49.894531 17 51 Z "/>
<path style=" fill:#8D6C9F;" d="M 46 34 L 53.199219 34 C 53.929688 34 54.597656 33.609375 54.953125 32.972656 C 55.304688 32.335938 55.285156 31.558594 54.898438 30.941406 L 51.148438 24.941406 C 50.785156 24.355469 50.140625 24 49.449219 24 L 46 24 C 44.894531 24 44 24.894531 44 26 L 44 32 C 44 33.105469 44.894531 34 46 34 Z M 46 26 L 49.449219 26 L 53.210938 32 L 46 32 Z "/>
</g>
</svg>